<svg viewBox="0 0 185 90" fill="none" xmlns="http://www.w3.org/2000/svg">
    <path d="M2 21.776H33.656V30.416H2V21.776ZM29.552 1.99999L36.656 1.99994V11.2159L31.472 11.216C29.68 11.152 28.112 11.344 26.768 11.792C25.488 12.24 24.464 13.072 23.696 14.288C22.992 15.504 22.64 17.232 22.64 19.472V69.008H11.888V18.512C11.888 14.672 12.592 11.536 14 9.10399C15.408 6.67199 17.424 4.87999 20.048 3.72799C22.736 2.57599 25.904 1.99999 29.552 1.99999Z" fill="#222222"/>
    <path d="M131.217 21.2L108.753 47.6L91.8573 69.008H78.8012L102.417 41.168L118.257 21.2H131.217ZM78.8012 21.2H91.9532L108.849 41.168L132.465 69.008H119.409L101.937 47.792L78.8012 21.2Z" fill="#222222"/>
    <path d="M130.165 21.2H141.589L160.885 67.088L151.669 69.008L130.165 21.2ZM183.445 21.2L152.725 88.208H141.493L154.645 62L172.021 21.2H183.445Z" fill="#222222"/>
    <path d="M57.8343 68.8384C69.3388 68.8384 78.7897 59.2357 78.7897 46.9109C78.7897 43.8857 78.643 40.6426 77.0504 35.6014C75.4578 30.5603 75.1378 29.9099 73.4544 26.7963C72.735 33.1486 68.8862 35.7971 67.9082 36.5888C67.9082 35.7648 64.0355 27.3879 60.5052 21.9391C57.0392 16.5934 53.8709 12.36 51.1076 9.98071C51.1076 14.498 49.902 21.2137 48.1739 24.6363C46.4471 28.0574 46.123 28.1824 43.9646 30.728C41.8076 33.2736 40.8171 34.0608 39.0122 37.1509C37.2086 40.2409 36.8789 44.3565 36.8789 47.3818C36.8789 59.7066 46.3298 68.8384 57.8343 68.8384Z" fill="url(#paint0_linear_502_232)"/>
    <defs>
        <linearGradient id="paint0_linear_502_232" x1="57.8343" y1="9.98071" x2="57.8343" y2="95.7732" gradientUnits="userSpaceOnUse">
            <stop stop-color="#FF740F"/>
            <stop offset="1" stop-color="#FFAD32"/>
        </linearGradient>
    </defs>
</svg>
