<svg width="186" height="52" viewBox="0 0 186 52" fill="none" xmlns="http://www.w3.org/2000/svg">
<path d="M4.78405 29.6822H23.9734V34.2536H4.78405V29.6822ZM5.31562 49.2968H0V12.0875H26.2591V16.7121H5.31562V49.2968Z" fill="#F0F0F0"/>
<path d="M102.045 49.2968L117.513 28.1938V32.2869L102.895 12.0875H108.955L120.543 27.9812L118.151 28.0344L129.686 12.0875H135.48L120.968 31.9679V28.1407L136.437 49.2968H130.324L117.992 32.34H120.331L108.158 49.2968H102.045Z" fill="#F0F0F0"/>
<path d="M165.96 49.2968V35.051L167.183 38.3467L151.183 12.0875H156.87L170.319 34.2536H167.236L180.738 12.0875H186L170.053 38.3467L171.223 35.051V49.2968H165.96Z" fill="#F0F0F0"/>
<path d="M65.3828 49.2968C74.5024 49.2968 81.9941 42.0698 81.9941 32.794C81.9941 30.5172 81.8778 28.0764 80.6153 24.2824C79.3529 20.4884 79.0993 19.9989 77.7648 17.6556C77.1945 22.4363 74.1436 24.4297 73.3684 25.0255C73.3684 24.4053 71.5234 17.5537 68.725 13.4529C65.9775 9.42968 62.241 6.7907 60.0506 5C60.0506 8.39978 59.0949 13.454 57.725 16.0299C56.3562 18.6047 56.0993 18.6988 54.3883 20.6146C52.6785 22.5305 51.8933 23.1229 50.4625 25.4485C49.0328 27.7741 48.7715 30.8715 48.7715 33.1484C48.7715 42.4241 56.2632 49.2968 65.3828 49.2968Z" stroke="#FF740F" stroke-width="4"/>
</svg>
