<svg width="38" height="52" viewBox="0 0 38 52" fill="none" xmlns="http://www.w3.org/2000/svg">
<path d="M19.3828 49.2968C28.5024 49.2968 35.9941 42.0698 35.9941 32.794C35.9941 30.5172 35.8778 28.0764 34.6153 24.2824C33.3529 20.4884 33.0993 19.9989 31.7648 17.6556C31.1945 22.4363 28.1436 24.4297 27.3684 25.0255C27.3684 24.4053 25.5234 17.5537 22.725 13.4529C19.9775 9.42968 16.241 6.7907 14.0506 5C14.0506 8.39978 13.0949 13.454 11.725 16.0299C10.3562 18.6047 10.0993 18.6988 8.38832 20.6146C6.67846 22.5305 5.8933 23.1229 4.46251 25.4485C3.03284 27.7741 2.77148 30.8715 2.77148 33.1484C2.77148 42.4241 10.2632 49.2968 19.3828 49.2968Z" stroke="#FF740F" stroke-width="4"/>
</svg>
